<svg width="30" height="30" viewBox="0 0 30 30" fill="none" xmlns="http://www.w3.org/2000/svg">
<rect width="30" height="30" rx="3" fill="black"/>
<path d="M5 15.1488V21.2976H8.44876C12.1885 21.2976 12.1924 21.2976 12.8829 21.0804C13.9652 20.739 14.745 20.0368 15.0825 19.1019C15.4627 18.0545 15.3734 16.5376 14.8808 15.6725C14.7101 15.3661 14.3027 14.9742 14.0195 14.8423C13.7945 14.7376 13.3872 14.629 13.1855 14.6251C13.1273 14.6212 13.17 14.5979 13.298 14.563C14.0428 14.3613 14.5976 13.8027 14.8032 13.0345C14.9079 12.6583 14.8963 11.7311 14.7799 11.3082C14.4502 10.0668 13.5113 9.26768 12.138 9.05819C11.8393 9.01164 11.1449 9 8.38669 9H5V15.1488ZM11.6066 11.2268C12.1109 11.4091 12.3437 11.9638 12.2583 12.7979C12.2118 13.2208 12.1264 13.4574 11.9441 13.6669C11.723 13.919 11.6609 13.9268 9.62809 13.9268H7.83194V12.5496V11.1724H9.64749C11.0596 11.1763 11.4902 11.188 11.6066 11.2268ZM11.913 15.9751C12.4639 16.2467 12.6889 16.7083 12.6928 17.554C12.6928 17.8915 12.6773 18.0273 12.6113 18.2096C12.495 18.5277 12.3475 18.7295 12.1187 18.873C11.7462 19.1096 11.8161 19.1019 9.74447 19.1174L7.83194 19.129V17.4764V15.8238L9.74447 15.8355L11.6531 15.8471L11.913 15.9751Z" fill="white"/>
<path d="M17.8873 10.4819L17.8989 11.2306L20.4321 11.2423L22.9615 11.25V10.4936V9.73708H20.4205H17.8795L17.8873 10.4819Z" fill="white"/>
<path d="M19.6757 12.185C18.989 12.2897 18.3101 12.538 17.8136 12.8677C17.061 13.3643 16.4131 14.2643 16.1028 15.2458C15.8778 15.9518 15.8428 16.204 15.8428 17.0497C15.8428 17.7635 15.8506 17.8605 15.9476 18.2368C16.3472 19.8196 17.2161 20.8049 18.6166 21.2743C19.1714 21.4605 19.6097 21.5304 20.3429 21.5575C22.2244 21.6235 23.6869 21.0299 24.3503 19.9321C24.5714 19.5635 24.746 18.9312 24.746 18.5006V18.3105H23.6598H22.5736V18.3997C22.5736 18.7295 22.2516 19.1678 21.8714 19.3618C21.2274 19.6877 20.1955 19.7032 19.5321 19.4006C19.2412 19.2687 18.9114 18.97 18.7446 18.6907C18.6011 18.454 18.4614 17.9575 18.4614 17.682V17.4958H21.6386H24.812L24.8391 17.3484C24.8818 17.0924 24.8624 16.4251 24.8042 15.9712C24.5288 13.8725 23.5085 12.6505 21.6891 12.2354C21.3748 12.1656 20.0287 12.1307 19.6757 12.185ZM20.9559 13.9695C21.7085 14.0859 22.1934 14.5436 22.399 15.3428C22.43 15.4669 22.4572 15.6299 22.4572 15.6997V15.8277H20.4399H18.4226L18.4459 15.7191C18.7563 14.4622 19.73 13.7794 20.9559 13.9695Z" fill="white"/>
</svg>
