<svg width="30" height="30" viewBox="0 0 30 30" fill="none" xmlns="http://www.w3.org/2000/svg">
<rect width="30" height="30" rx="3" fill="black"/>
<path d="M5.00716 7.02262C5.0008 7.03742 4.99867 10.4144 5.0008 14.5251L5.00716 22H15.0036H25V14.5039V7.00782L15.0078 7.00147C7.02552 6.99724 5.01352 7.00147 5.00716 7.02262ZM19.0954 11.9538C15.5803 15.4576 15.4552 15.5802 15.3025 15.6542C15.1689 15.7198 15.1244 15.7303 15.0036 15.7303C14.8827 15.7303 14.8382 15.7198 14.7046 15.6542C14.552 15.5802 14.4269 15.4576 10.9117 11.9538L7.2757 8.32941H15.0036H22.7315L19.0954 11.9538ZM8.95484 17.1196L6.33224 19.7374V14.5039V9.27039L8.95484 11.8882L11.5796 14.5039L8.95484 17.1196ZM23.6749 14.5081V19.7374L21.0523 17.1217L18.4276 14.5039L21.046 11.8924C22.4855 10.4567 23.6664 9.28096 23.6686 9.28096C23.6728 9.28096 23.6749 11.6345 23.6749 14.5081ZM13.0955 16.0116C13.6785 16.5889 13.8269 16.7115 14.1407 16.8595C14.4841 17.0223 14.7386 17.0752 15.1096 17.0562C15.3873 17.0414 15.5251 17.0097 15.7901 16.8955C16.14 16.7453 16.3011 16.6185 16.9181 16.0074L17.4841 15.4449L20.1089 18.0627L22.7315 20.6784H15.0036H7.2757L9.89406 18.0669C11.3336 16.6311 12.5167 15.4555 12.523 15.4555C12.5273 15.4555 12.7859 15.705 13.0955 16.0116Z" fill="white"/>
</svg>
