<svg width="133" height="30" viewBox="0 0 133 30" fill="none" xmlns="http://www.w3.org/2000/svg">
<path d="M133 3C133 1.34315 131.657 0 130 0H3C1.34314 0 0 1.34315 0 3V27C0 28.6569 1.34315 30 3 30H130C131.657 30 133 28.6569 133 27V3Z" fill="black"/>
<path fill-rule="evenodd" clip-rule="evenodd" d="M43.7598 19.4236H43.7342C43.7457 19.4236 43.7534 19.436 43.7649 19.4373H43.7726L43.7598 19.4249V19.4236ZM43.7649 19.4373C43.6458 19.4385 43.3457 19.4992 43.0289 19.4992C42.0288 19.4992 41.6826 19.0533 41.6826 18.4711V14.5929H43.7214C43.8367 14.5929 43.9265 14.4939 43.9265 14.3576V12.2519C43.9265 12.1404 43.8239 12.0413 43.7214 12.0413H41.6826V9.4278C41.6826 9.3287 41.6185 9.2668 41.5031 9.2668H38.7334C38.6181 9.2668 38.554 9.3287 38.554 9.4278V12.1157C38.554 12.1157 37.1563 12.4501 37.0666 12.4625C36.964 12.4873 36.8999 12.574 36.8999 12.6731V14.3576C36.8999 14.4939 37.0024 14.5929 37.1179 14.5929H38.5411V18.6557C38.5411 21.678 40.7209 21.9876 42.2083 21.9876C42.8879 21.9876 43.7086 21.777 43.8367 21.7151C43.9137 21.6903 43.9522 21.6036 43.9522 21.5169V19.659C43.954 19.6063 43.936 19.5547 43.9016 19.5138C43.8673 19.4728 43.8187 19.4452 43.7649 19.436V19.4373ZM74.1489 16.711C74.1489 14.4691 73.2128 14.1718 72.2255 14.2709C71.4562 14.3204 70.8407 14.692 70.8407 14.692V19.052C70.8407 19.052 71.469 19.4732 72.405 19.498C73.7257 19.5351 74.1489 19.0768 74.1489 16.711ZM77.2647 16.5128C77.2647 20.7614 75.8414 21.9752 73.3539 21.9752C71.251 21.9752 70.1227 20.9472 70.1227 20.9472C70.1227 20.9472 70.0713 21.5169 70.0072 21.5912C69.9687 21.6656 69.9047 21.6903 69.8278 21.6903H67.93C67.8018 21.6903 67.6864 21.5912 67.6864 21.4798L67.712 7.7185C67.712 7.60702 67.8147 7.50793 67.93 7.50793H70.6612C70.7765 7.50793 70.8792 7.60702 70.8792 7.7185V12.3882C70.8792 12.3882 71.9306 11.7317 73.4693 11.7317L73.4565 11.7069C74.9951 11.7069 77.2647 12.2643 77.2647 16.5128ZM66.0836 12.0413H63.3909C63.2498 12.0413 63.1729 12.1404 63.1729 12.2767V19.0149C63.1729 19.0149 62.4676 19.498 61.506 19.498C60.5443 19.498 60.2623 19.0768 60.2623 18.1478V12.2643C60.2623 12.1528 60.1596 12.0537 60.0443 12.0537H57.3003C57.1848 12.0537 57.0823 12.1528 57.0823 12.2643V18.5937C57.0823 21.3187 58.6594 22 60.8264 22C62.6087 22 64.0577 21.0462 64.0577 21.0462C64.0577 21.0462 64.1218 21.5293 64.1602 21.6036C64.1859 21.6656 64.2756 21.7151 64.3654 21.7151H66.0836C66.2246 21.7151 66.3016 21.616 66.3016 21.5045L66.3272 12.2519C66.3272 12.1404 66.2246 12.0413 66.0836 12.0413ZM35.6946 12.029H32.9634C32.848 12.029 32.7455 12.1404 32.7455 12.2767V21.3683C32.7455 21.616 32.9121 21.7027 33.1301 21.7027H35.592C35.8485 21.7027 35.9125 21.5912 35.9125 21.3683V12.2395C35.9125 12.1281 35.81 12.029 35.6946 12.029ZM34.3482 7.84236C33.3609 7.84236 32.5788 8.59793 32.5788 9.5517C32.5788 10.5054 33.3609 11.261 34.3482 11.261C35.3099 11.261 36.0921 10.5054 36.0921 9.5517C36.0921 8.59793 35.3099 7.84236 34.3482 7.84236ZM55.4923 7.5327H52.7868C52.6714 7.5327 52.5688 7.63179 52.5688 7.74327V12.8093H48.3246V7.74327C48.3246 7.63179 48.222 7.5327 48.1066 7.5327H45.3755C45.26 7.5327 45.1575 7.63179 45.1575 7.74327V21.5045C45.1575 21.616 45.2729 21.7151 45.3755 21.7151H48.1066C48.222 21.7151 48.3246 21.616 48.3246 21.5045V15.621H52.5688L52.5432 21.5045C52.5432 21.616 52.6457 21.7151 52.7612 21.7151H55.4923C55.6077 21.7151 55.7103 21.616 55.7103 21.5045V7.74327C55.7103 7.63179 55.6077 7.5327 55.4923 7.5327ZM31.2965 13.6268V20.7366C31.2965 20.7861 31.2837 20.8728 31.2195 20.8976C31.2195 20.8976 29.6168 22 26.9754 22C23.7826 22 20 21.0339 20 14.6673C20 8.30066 23.3082 6.9877 26.5394 7.00009C29.3347 7.00009 30.463 7.60702 30.6425 7.7185C30.6938 7.78043 30.7194 7.82997 30.7194 7.89191L30.1809 10.0967C30.1809 10.2082 30.0656 10.3444 29.9245 10.3073C29.463 10.171 28.7705 9.8985 27.142 9.8985C25.2572 9.8985 23.2313 10.4187 23.2313 14.5186C23.2313 18.6185 25.1545 19.1016 26.5394 19.1016C27.7191 19.1016 28.1422 18.9653 28.1422 18.9653V16.1165H26.2573C26.1162 16.1165 26.0137 16.0174 26.0137 15.9059V13.6268C26.0137 13.5153 26.1162 13.4162 26.2573 13.4162H31.0529C31.1939 13.4162 31.2965 13.5153 31.2965 13.6268Z" fill="white"/>
<path fill-rule="evenodd" clip-rule="evenodd" d="M87.7784 15.3706H90.8121V20.3706C90.1311 20.7065 88.7814 20.7935 87.6793 20.7935C84.5093 20.7935 83.3825 18.0572 83.3825 14.5124C83.3825 10.9677 84.5094 8.21891 87.6917 8.21891C89.2767 8.21891 90.2426 8.50498 91.7532 9.1269V7.8209C90.9607 7.41045 89.6977 7 87.6917 7C83.3578 7 81.9585 10.3458 81.9585 14.5C81.9585 18.6542 83.333 22 87.6917 22C89.7225 22 91.1712 21.6642 92.1371 21.204V14.1269H87.7784V15.3706ZM95.6909 19.9975V12.0498H94.3908V19.8607C94.3908 21.4154 95.1089 22 96.5206 22V20.893C95.9262 20.893 95.6909 20.694 95.6909 20.0224V19.9975ZM96.0005 9.1517C96.0005 8.60448 95.5919 8.18159 95.0346 8.18159C94.4775 8.18159 94.0811 8.60448 94.0811 9.1517C94.0811 9.699 94.4898 10.1219 95.0346 10.1219C95.5795 10.1219 96.0005 9.699 96.0005 9.1517ZM101.374 16.2289C99.5172 16.0672 99.1705 15.6318 99.1705 14.7736C99.1705 13.8159 99.5792 13.107 101.498 13.107C102.799 13.107 103.555 13.306 104.31 13.5547V12.3856C103.455 12.0124 102.428 11.9005 101.523 11.9005C98.799 11.9005 97.9075 13.393 97.9075 14.7736C97.9075 16.1169 98.4895 17.1119 101.288 17.3607C103.207 17.5224 103.481 18.1443 103.481 19.0274C103.481 19.9353 102.935 20.7935 100.929 20.7935C99.5543 20.7935 98.6257 20.5572 98.0437 20.3458V21.5149C98.6628 21.7637 100 22 100.929 22C103.876 22 104.816 20.5075 104.816 19.0025C104.816 17.4104 104.16 16.4776 101.412 16.2289H101.374ZM112 13.1567V12.0871H109.002V8.97761L107.665 9.3632V11.9876L105.734 12.5348V13.1318H107.665V19.3507C107.665 21.2537 109.138 22 110.76 22C110.996 22 111.405 21.9751 111.615 21.9378V20.8308C111.38 20.8682 111.108 20.8682 110.86 20.8682C109.659 20.8682 109.002 20.3831 109.002 19.2015V13.1443H112V13.1692V13.1567Z" fill="white"/>
</svg>
