<svg width="30" height="30" viewBox="0 0 30 30" fill="none" xmlns="http://www.w3.org/2000/svg">
<rect width="30" height="30" rx="3" fill="black"/>
<path fill-rule="evenodd" clip-rule="evenodd" d="M25.1521 7.34303L23.5435 8.88499C23.4736 8.93661 23.422 9.00822 23.3903 9.08814C23.3587 9.16807 23.3504 9.25633 23.3653 9.34125V9.33792V20.6712C23.352 20.7544 23.3603 20.841 23.392 20.921C23.4236 21.0009 23.4752 21.0692 23.5435 21.1224L25.1155 22.6644V23.0024H17.2141V22.6644L18.841 21.0825C19.0009 20.9226 19.0009 20.876 19.0009 20.6329V11.471L14.4766 22.9641H13.8638L8.59347 11.471V19.1742C8.57183 19.334 8.58681 19.4972 8.63677 19.6504C8.68672 19.8036 8.77165 19.9435 8.88488 20.0584L11.003 22.6261V22.9641H5V22.6261L7.11812 20.0584C7.23135 19.9418 7.31461 19.8003 7.36123 19.6454C7.40786 19.4906 7.41785 19.3274 7.38954 19.1675L7.39121 19.1742V10.2671C7.40286 10.1455 7.38788 10.0223 7.34292 9.90742C7.29796 9.79252 7.22802 9.69094 7.1381 9.60935V9.60768L5.25477 7.3397V7.00167H11.0962L15.6122 16.9045L19.582 7H25.1521V7.33803V7.34303Z" fill="#FEFEFE"/>
</svg>
