<svg width="30" height="30" viewBox="0 0 30 30" fill="none" xmlns="http://www.w3.org/2000/svg">
<rect width="30" height="30" rx="3" fill="black"/>
<path d="M14.0757 5.03597C11.383 5.29663 8.89076 6.66677 7.14687 8.83227C4.60788 11.9803 4.28716 16.6254 6.36513 20.0742C7.36736 21.7317 8.86403 23.1219 10.5946 24.0041C10.7816 24.0977 10.9487 24.1712 10.9687 24.1712C10.9888 24.1712 11.0021 23.8437 11.0021 23.4427C11.0021 22.6407 11.0957 22.0659 11.4498 20.6623C12.138 17.9087 12.4654 16.3982 12.4053 16.2845C12.2917 16.0707 12.138 15.2285 12.138 14.8208C12.138 14.3262 12.2917 13.7514 12.5523 13.2635C13.2271 11.9936 14.8774 11.9201 15.3117 13.1365C15.5122 13.718 15.4387 14.2059 14.7839 16.4182C14.6436 16.8794 14.5166 17.394 14.4966 17.5678C14.4498 17.9755 14.5968 18.3899 14.9175 18.7174C15.2984 19.1117 15.5055 19.1919 16.1469 19.1919C16.6414 19.1919 16.7616 19.1652 17.0824 18.9981C18.7127 18.1493 19.6815 15.2686 19.1202 12.9427C18.9732 12.3278 18.5857 11.5793 18.2182 11.205C17.8641 10.844 17.0089 10.3962 16.3474 10.2292C15.8062 10.0955 14.3763 10.1289 13.775 10.296C13.2204 10.4497 12.3852 10.8641 11.9175 11.2116C10.942 11.9402 10.2672 13.3772 10.2672 14.7206C10.2672 15.4424 10.3674 15.8635 10.7148 16.5452C11.0355 17.1601 11.0489 17.2938 10.8952 17.8285C10.6948 18.5169 10.5545 18.6038 10.0534 18.3498C9.44533 18.0423 8.85067 17.3205 8.59677 16.5853C8.19588 15.4223 8.33619 13.2034 8.88408 12.1073C9.77273 10.3227 11.4431 9.13972 13.8218 8.6184C14.6436 8.44462 16.4142 8.45799 17.3028 8.64513C20.1024 9.25334 21.9398 12.0939 21.6191 15.3087C21.4454 17.0465 20.8307 18.4367 19.7617 19.4994C18.7728 20.4819 17.6904 20.9631 16.4676 20.9631C15.5055 20.9631 14.844 20.7225 14.236 20.1477C14.0422 19.9672 13.8752 19.8469 13.8552 19.8736C13.8351 19.9004 13.6814 20.4618 13.5144 21.1168C13.1001 22.7276 12.8462 23.4761 12.4988 24.0843C12.3384 24.3651 12.2182 24.6057 12.2315 24.619C12.2449 24.6324 12.5923 24.7193 13.0133 24.8195C13.6881 24.9733 13.9153 25 14.9777 25C16.6815 25 17.9175 24.7327 19.2739 24.071C22.1603 22.6674 24.1782 20.0808 24.8396 16.9529C25.0535 15.9303 25.0535 14.0188 24.8396 13.0095C24.4187 11.0446 23.5902 9.46054 22.2272 8.03692C20.8641 6.61999 19.4677 5.7979 17.5835 5.32336C16.5077 5.04933 15.0912 4.93571 14.0757 5.03597Z" fill="white"/>
</svg>
