<svg width="30" height="30" viewBox="0 0 30 30" fill="none" xmlns="http://www.w3.org/2000/svg">
<g clip-path="url(#clip0)">
<path d="M26.9999 9.91821e-05H2.9999C1.34305 9.91821e-05 -9.91821e-05 1.34325 -9.91821e-05 3.0001V27.0001C-9.91821e-05 28.657 1.34305 30.0001 2.9999 30.0001H26.9999C28.6568 30.0001 29.9999 28.657 29.9999 27.0001V3.0001C29.9999 1.34325 28.6568 9.91821e-05 26.9999 9.91821e-05Z" fill="black"/>
<path fill-rule="evenodd" clip-rule="evenodd" d="M24.4706 6.7887C24.7548 6.9463 24.9022 7.25093 24.9022 7.67726C24.9022 7.90591 24.4604 10.0795 23.3787 15.1931C22.5359 19.1487 21.8197 22.4902 21.7793 22.6172C21.6776 22.9271 21.4391 23.2064 21.2154 23.2771C21.0075 23.3481 20.6976 23.3179 20.4334 23.2064C20.337 23.1656 19.2198 22.3685 17.9503 21.4289L15.6448 19.7277L14.4365 20.9058C13.766 21.5559 13.1261 22.1345 13.0093 22.1957C12.7198 22.3583 12.3086 22.3583 12.1412 22.2007C12.0444 22.1092 11.8109 21.4493 11.095 19.2402C10.5822 17.6762 10.1657 16.3912 10.1604 16.3912C10.1555 16.3863 9.14483 16.0666 7.91612 15.6856C6.68703 15.2997 5.61555 14.9543 5.52938 14.9138C5.05732 14.675 4.96057 14.3295 5.2754 14.0098C5.37706 13.9134 5.5649 13.7762 5.69681 13.7101C5.86953 13.6239 22.0895 7.34239 23.6837 6.74826C23.9528 6.64659 24.2423 6.6568 24.471 6.7887H24.4706ZM20.9618 9.73405C20.7331 9.82022 10.8917 16.031 10.8868 16.0919C10.8815 16.1172 11.2421 17.2548 11.6839 18.6154C12.1866 20.1643 12.5018 21.0528 12.5218 21.0022C12.5422 20.9565 12.6133 20.2304 12.6896 19.3925C12.7607 18.5546 12.8317 17.8184 12.8468 17.7575C12.857 17.6914 14.5533 16.1274 17.1581 13.7762C19.7073 11.476 21.4493 9.87124 21.4493 9.81531C21.4493 9.66299 21.2411 9.63238 20.9618 9.73405V9.73405Z" fill="#FEFEFE"/>
</g>
<defs>
<clipPath id="clip0">
<rect width="30" height="30" rx="2" fill="white"/>
</clipPath>
</defs>
</svg>
