<svg width="30" height="30" viewBox="0 0 30 30" fill="none" xmlns="http://www.w3.org/2000/svg">
<rect width="30" height="30" rx="3" fill="black"/>
<path d="M25 8.89224C24.2521 9.21989 23.458 9.4338 22.6448 9.52667C23.5009 9.02134 24.1418 8.22749 24.4489 7.2923C23.6433 7.76241 22.7623 8.0941 21.8437 8.27319C21.4594 7.87047 20.9952 7.54969 20.4799 7.3307C19.9647 7.1117 19.4092 6.99915 18.848 7C17.7603 7 16.7172 7.4255 15.9481 8.18289C15.179 8.94027 14.7469 9.96751 14.7469 11.0386C14.7469 11.3537 14.7819 11.6614 14.8525 11.958C13.2213 11.8774 11.6255 11.4599 10.1688 10.7324C8.71206 10.0049 7.42706 8.98378 6.39724 7.73536C6.03355 8.35215 5.84231 9.05282 5.84297 9.76605C5.84216 10.431 6.00826 11.0859 6.32649 11.6724C6.64472 12.2589 7.10521 12.7588 7.667 13.1278C7.01546 13.1076 6.37819 12.9348 5.80797 12.6238V12.6736C5.8078 13.6068 6.13566 14.5112 6.73585 15.2332C7.33605 15.9553 8.17157 16.4505 9.10048 16.6347C8.4957 16.7967 7.86129 16.8203 7.24583 16.7036C7.50874 17.5058 8.01903 18.2073 8.70568 18.7106C9.39234 19.2138 10.2212 19.4938 11.077 19.5115C10.2256 20.1704 9.25061 20.6573 8.2078 20.9444C7.165 21.2315 6.0749 21.3132 5 21.1847C6.87648 22.3729 9.06102 23.0031 11.2919 23C18.8374 23 22.9654 16.8427 22.9654 11.5044C22.9654 11.3278 22.9616 11.1543 22.9535 10.9814C23.7573 10.4117 24.4505 9.70424 25 8.89285V8.89224Z" fill="white"/>
</svg>
